<svg width="22" height="24" viewBox="0 0 22 24" fill="none" xmlns="http://www.w3.org/2000/svg">
<path fill-rule="evenodd" clip-rule="evenodd" d="M2.28902 1.039C-4.91198 4.794 6.52302 27.021 13.89 23.654C14.011 23.599 15.992 22.625 16 22.621L12.479 15.826C12.472 15.83 10.506 16.796 10.415 16.837C8.17602 17.923 3.61702 9.017 5.80602 7.843L7.88802 6.817L4.39602 0L2.28902 1.039ZM15.269 11.115L12.352 10.245L13.221 7.329C13.967 7.551 14.63 8.059 15.029 8.798C15.429 9.536 15.492 10.368 15.269 11.115ZM14.156 4.187C15.707 4.649 17.082 5.703 17.912 7.238C18.743 8.774 18.872 10.501 18.41 12.051L16.615 11.516C16.94 10.425 16.848 9.21 16.263 8.129C15.68 7.048 14.712 6.307 13.62 5.983L14.156 4.187ZM20.835 5.656C19.569 3.312 17.471 1.705 15.106 1L14.557 2.841C16.452 3.405 18.132 4.693 19.148 6.57C20.162 8.446 20.32 10.557 19.756 12.452L21.596 13C22.301 10.634 22.104 7.999 20.835 5.656Z" fill="white"/>
</svg>
